<svg fill="#493628" version="1.1" id="Capa_1" xmlns="http://www.w3.org/2000/svg"
    xmlns:xlink="http://www.w3.org/1999/xlink" viewBox="-14.89 -14.89 526.27 526.27" xml:space="preserve"
    stroke="#493628" stroke-width="18.866772">
    <g id="SVGRepo_bgCarrier" stroke-width="0"></g>
    <g id="SVGRepo_tracerCarrier" stroke-linecap="round" stroke-linejoin="round"></g>
    <g id="SVGRepo_iconCarrier">
        <g>
            <g>
                <path
                    d="M144.059,344.273c5.278,0,13.32,2.037,17.949,4.582c13.76,7.553,41.865,23.102,83.949,46.443 c10.213,5.672,20.157,8.549,29.558,8.549c24.834,0,40.88-19.631,40.88-50.021V140.144c0-29.299-14.019-47.497-36.596-47.497 c-9.792,0-20.693,3.796-31.509,10.987l-87.133,57.892c-4.399,2.926-12.25,5.288-17.528,5.288H81.262 C36.452,166.813,0,206.612,0,255.525c0,48.93,36.452,88.738,81.262,88.738h62.797V344.273z M147.97,181.157 c5.278,0,13.129-2.372,17.528-5.288l90.738-60.301c8.463-5.613,16.61-8.578,23.572-8.578c13.932,0,22.252,12.393,22.252,33.153 v213.692c0,22.004-10.175,35.678-26.536,35.678c-6.933,0-14.525-2.266-22.597-6.75c-95.271-52.814-95.271-52.814-97.557-52.814 h-74.09c-36.902,0-66.918-33.373-66.918-74.396c0-41.003,30.017-74.367,66.918-74.367h66.689V181.157z">
                </path>
                <path
                    d="M352.216,210.648c2.228,0.822,4.724,0.488,6.665-0.909l55.376-39.79c3.203-2.304,3.931-6.799,1.626-10.031 c-2.219-3.06-6.904-3.825-10.003-1.626l-55.376,39.79c-3.213,2.314-3.949,6.799-1.636,10.031 C349.72,209.28,350.867,210.15,352.216,210.648z">
                </path>
                <path
                    d="M489.38,246.22l-132.115-0.908c-3.949-0.019-7.182,3.175-7.22,7.124c-0.02,3.013,1.874,5.748,4.704,6.79 c0.756,0.268,1.568,0.421,2.42,0.439l132.115,0.899c3.949,0.02,7.191-3.166,7.21-7.125 C496.514,249.596,493.281,246.249,489.38,246.22z">
                </path>
                <path
                    d="M420.425,325.723l-66.115-29.404c-3.528-1.291-7.487,0.383-9.018,3.814c-1.597,3.615,0.02,7.861,3.634,9.467 l65.637,29.205l0.488,0.201c3.538,1.301,7.497-0.383,9.026-3.816C425.675,331.576,424.039,327.33,420.425,325.723z">
                </path>
            </g>
        </g>
    </g>
</svg>